<?xml version="1.0" encoding="iso-8859-1"?>
<!-- Generator: Adobe Illustrator 19.0.0, SVG Export Plug-In . SVG Version: 6.00 Build 0)  -->
<svg version="1.1" id="Layer_1" xmlns="http://www.w3.org/2000/svg" xmlns:xlink="http://www.w3.org/1999/xlink" x="0px" y="0px"
	 viewBox="0 0 512.001 512.001" style="enable-background:new 0 0 512.001 512.001;" xml:space="preserve">
<path style="fill:#73C6BE;" d="M0,362.341c23.276,0,23.276-22.539,46.553-22.539s23.276,22.539,46.553,22.539
	c23.273,0,23.273-22.539,46.545-22.539c23.273,0,23.273,22.539,46.547,22.539c23.272,0,23.272-22.539,46.545-22.539
	c23.272,0,23.272,22.539,46.544,22.539c23.27,0,23.27-22.539,46.538-22.539c23.272,0,23.272,22.539,46.544,22.539
	c23.272,0,23.272-22.539,46.545-22.539c23.272,0,23.272,22.539,46.544,22.539c23.271,0,23.271-22.539,46.542-22.539v-54.802
	c-23.271,0-23.271,22.539-46.542,22.539c-23.272,0-23.272-22.539-46.544-22.539c-23.272,0-23.272,22.539-46.545,22.539
	c-23.272,0-23.272,8.066-46.544,8.066c-23.27,0-23.27,7.114-46.538,7.114c-23.272,0-23.272-3.557-46.544-3.557
	s-23.272-11.623-46.545-11.623s-23.273-22.539-46.547-22.539s-23.273,22.539-46.545,22.539c-23.276,0-23.276-22.539-46.553-22.539
	S23.276,307.539,0,307.539"/>
<path style="fill:#F9E178;" d="M371.946,362.332l-170.581,21.235l-45.387,5.644l-22.065-48.908
	c-32.309-125.087-21.401-245.443-21.401-245.443s14.856,91.438,49.43,154.658c9.367,17.157,23.109,31.029,39.399,40.597
	c0,0,0,0,0.012,0.012c6.331,3.723,13.042,6.794,20.05,9.165c0.012,0,0.024,0.012,0.036,0.012h69.112
	c0.024-0.012,0.047-0.012,0.071-0.024c24.982-8.454,46.419-25.942,59.449-49.762c34.005-62.235,48.944-151.812,49.406-154.586
	c0.012-0.047,0.012-0.071,0.012-0.071S411.701,229.739,371.946,362.332z"/>
<path style="fill:#DDC662;" d="M201.365,383.567l-45.387,5.644l-22.065-48.908c-32.309-125.087-21.401-245.443-21.401-245.443
	s11.762,205.558,73.689,267.485C193.742,369.884,198.627,376.963,201.365,383.567z"/>
<circle style="fill:#F9E178;" cx="256.008" cy="241.651" r="67.221"/>
<path style="fill:#DDC662;" d="M270.231,294.644c-29.267,0-52.993-23.726-52.993-52.993c0-29.268,23.726-52.993,52.993-52.993
	c28.353,0,51.505,22.267,52.924,50.266c-1.432-35.859-30.942-64.494-67.152-64.494c-37.125,0-67.221,30.096-67.221,67.221
	s30.096,67.221,67.221,67.221c36.211,0,65.72-28.635,67.152-64.494C321.736,272.377,298.584,294.644,270.231,294.644z"/>
<g>
	<path style="fill:#216B84;" d="M229.916,219.987c-3.779,0-7.272-1.988-8.438-4.833c-1.175-2.866,0.096-6.132,3.212-7.899
		c6.585-3.732,15.825,1.125,13.847,7.402C237.564,217.749,233.945,219.987,229.916,219.987z"/>
	<path style="fill:#216B84;" d="M282.085,219.987c-7.945,0-11.879-8.029-5.971-12.251c2.874-2.055,7.215-2.393,10.539-0.82
		c3.255,1.539,4.934,4.649,4.1,7.574C289.851,217.655,286.203,219.987,282.085,219.987z"/>
</g>
<path style="fill:#333333;" d="M278.386,241.169c0,3.106-1.612,5.976-4.363,8.3c-4.079,3.45-10.624,5.691-18.022,5.691
	s-13.943-2.241-18.022-5.691c-2.751-2.324-4.363-5.193-4.363-8.3c0-7.731,10.019-13.991,22.385-13.991
	C268.367,227.178,278.386,233.439,278.386,241.169z"/>
<path style="fill:#F24141;" d="M274.023,249.469c-4.079,3.45-10.624,5.691-18.022,5.691c-7.399,0-13.943-2.241-18.022-5.691
	c4.079-3.45,10.624-5.691,18.022-5.691C263.399,243.778,269.944,246.019,274.023,249.469z"/>
<path style="fill:#DDC662;" d="M399.477,94.93c-0.427,4.174-19.765,190.097-88.936,212.375
	c-69.1,22.255-108.239-16.232-109.187-17.18c6.331,3.723,13.042,6.794,20.05,9.165c0.012,0,0.024,0.012,0.036,0.012h69.112
	c0.024-0.012,0.047-0.012,0.071-0.024c24.982-8.454,46.419-25.942,59.449-49.762C384.076,187.281,399.015,97.704,399.477,94.93z"/>
<path style="fill:#88E2DB;" d="M0,417.142c23.276,0,23.276-22.539,46.553-22.539s23.276,22.539,46.553,22.539
	c23.273,0,23.273-22.539,46.545-22.539c23.273,0,23.273,22.539,46.547,22.539c23.272,0,23.272-22.539,46.545-22.539
	c23.272,0,23.272,22.539,46.544,22.539c23.27,0,23.27-22.539,46.538-22.539c23.272,0,23.272,22.539,46.544,22.539
	c23.272,0,23.272-22.539,46.545-22.539c23.272,0,23.272,22.539,46.544,22.539c23.271,0,23.271-22.539,46.542-22.539v-54.801
	c-23.271,0-23.271,22.539-46.542,22.539c-23.272,0-23.272-22.539-46.544-22.539c-23.272,0-23.272,22.539-46.545,22.539
	c-23.272,0-23.272-22.539-46.544-22.539c-23.27,0-23.27,22.539-46.538,22.539c-23.272,0-23.272-22.539-46.544-22.539
	s-23.272,22.539-46.545,22.539s-23.273-22.539-46.547-22.539s-23.273,22.539-46.545,22.539c-23.276,0-23.276-22.539-46.553-22.539
	S23.276,362.341,0,362.341"/>
<g>
</g>
<g>
</g>
<g>
</g>
<g>
</g>
<g>
</g>
<g>
</g>
<g>
</g>
<g>
</g>
<g>
</g>
<g>
</g>
<g>
</g>
<g>
</g>
<g>
</g>
<g>
</g>
<g>
</g>
</svg>
