<?xml version="1.0" encoding="UTF-8" standalone="no"?>
<!DOCTYPE svg PUBLIC "-//W3C//DTD SVG 1.1//EN" "http://www.w3.org/Graphics/SVG/1.1/DTD/svg11.dtd">
<svg version="1.1" xmlns="http://www.w3.org/2000/svg" xmlns:xlink="http://www.w3.org/1999/xlink" preserveAspectRatio="xMidYMid meet" viewBox="0 0 640 640" width="640" height="640"><defs><path d="M470 400L390 400L389.92 404.12L389.67 408.2L389.26 412.23L388.69 416.21L387.97 420.14L387.09 424.02L386.07 427.84L384.9 431.59L383.59 435.29L382.14 438.91L380.55 442.46L378.83 445.94L376.98 449.34L375.01 452.66L372.91 455.89L370.7 459.04L368.36 462.1L365.92 465.06L363.36 467.93L360.7 470.7L357.93 473.36L355.06 475.92L352.1 478.36L349.04 480.7L345.89 482.91L342.66 485.01L339.34 486.98L335.94 488.83L332.46 490.55L328.91 492.14L325.29 493.59L321.59 494.9L317.84 496.07L314.02 497.09L310.14 497.97L306.21 498.69L302.23 499.26L298.2 499.67L294.12 499.92L290 500L285.88 499.92L281.8 499.67L277.77 499.26L273.79 498.69L269.86 497.97L265.98 497.09L262.16 496.07L258.41 494.9L254.71 493.59L251.09 492.14L247.54 490.55L244.06 488.83L240.66 486.98L237.34 485.01L234.11 482.91L230.96 480.7L227.9 478.36L224.94 475.92L222.07 473.36L219.3 470.7L216.64 467.93L214.08 465.06L211.64 462.1L209.3 459.04L207.09 455.89L204.99 452.66L203.02 449.34L201.17 445.94L199.45 442.46L197.86 438.91L196.41 435.29L195.1 431.59L193.93 427.84L192.91 424.02L192.03 420.14L191.31 416.21L190.74 412.23L190.33 408.2L190.08 404.12L190 400L190.08 395.88L190.33 391.8L190.74 387.77L191.31 383.79L192.03 379.86L192.91 375.98L193.93 372.16L195.1 368.41L196.41 364.71L197.86 361.09L199.45 357.54L201.17 354.06L203.02 350.66L204.99 347.34L207.09 344.11L209.3 340.96L211.64 337.9L214.08 334.94L216.64 332.07L219.3 329.3L222.07 326.64L224.94 324.08L227.9 321.64L230.96 319.3L234.11 317.09L237.34 314.99L240.66 313.02L244.06 311.17L247.54 309.45L251.09 307.86L254.71 306.41L258.41 305.1L262.16 303.93L265.98 302.91L269.86 302.03L273.79 301.31L277.77 300.74L281.8 300.33L285.88 300.08L290 300L294.12 300.08L298.2 300.33L302.23 300.74L306.21 301.31L310.14 302.03L314.02 302.91L317.84 303.93L321.59 305.1L325.29 306.41L328.91 307.86L332.46 309.45L335.94 311.17L339.34 313.02L339.96 313.39L335 322L290 400L390 400L389.92 395.88L389.67 391.8L389.26 387.77L388.69 383.79L387.97 379.86L387.09 375.98L386.07 372.16L384.9 368.41L383.59 364.71L382.14 361.09L380.55 357.54L378.83 354.06L376.98 350.66L375.01 347.34L372.91 344.11L370.7 340.96L368.36 337.9L365.92 334.94L363.36 332.07L360.7 329.3L357.93 326.64L355.06 324.08L352.1 321.64L349.04 319.3L345.89 317.09L342.66 314.99L339.96 313.39L380 244L425 322L470 400ZM222.31 420.24L221.01 420.54L219.77 420.94L218.57 421.45L217.43 422.05L216.35 422.75L215.34 423.53L214.4 424.4L213.53 425.34L212.75 426.35L212.05 427.43L211.45 428.57L210.94 429.77L210.54 431.01L210.24 432.31L210.06 433.64L210 435L210.06 436.36L210.24 437.69L210.54 438.99L210.94 440.23L211.45 441.43L212.05 442.57L212.75 443.65L213.53 444.66L214.4 445.6L215.34 446.47L216.35 447.25L217.43 447.95L218.57 448.55L219.77 449.06L221.01 449.46L222.31 449.76L223.64 449.94L225 450L226.36 449.94L227.69 449.76L228.99 449.46L230.23 449.06L231.43 448.55L232.57 447.95L233.65 447.25L234.66 446.47L235.6 445.6L236.47 444.66L237.25 443.65L237.95 442.57L238.55 441.43L239.06 440.23L239.46 438.99L239.76 437.69L239.94 436.36L240 435L239.94 433.64L239.76 432.31L239.46 431.01L239.06 429.77L238.55 428.57L237.95 427.43L237.25 426.35L236.47 425.34L235.6 424.4L234.66 423.53L233.65 422.75L232.57 422.05L231.43 421.45L230.23 420.94L228.99 420.54L227.69 420.24L226.36 420.06L225 420L223.64 420.06L222.31 420.24Z" id="ag9lKDnsK"></path></defs><g><g><g><use xlink:href="#ag9lKDnsK" opacity="1" fill="#E9F7F9" fill-opacity="1"></use></g></g></g></svg>