<?xml version="1.0" encoding="UTF-8" standalone="no"?>
<!DOCTYPE svg PUBLIC "-//W3C//DTD SVG 1.1//EN" "http://www.w3.org/Graphics/SVG/1.1/DTD/svg11.dtd">
<svg version="1.1" xmlns="http://www.w3.org/2000/svg" xmlns:xlink="http://www.w3.org/1999/xlink" preserveAspectRatio="xMidYMid meet" viewBox="0 0 640 640" width="640" height="640"><defs><path d="M640 382.12L457.14 382.12L456.95 392.21L456.38 402.2L455.45 412.07L454.15 421.83L452.5 431.46L450.5 440.96L448.15 450.31L445.48 459.51L442.48 468.55L439.17 477.43L435.54 486.13L431.61 494.65L427.39 502.98L422.88 511.11L418.08 519.03L413.02 526.75L407.68 534.23L402.09 541.49L396.25 548.52L390.16 555.29L383.84 561.81L377.29 568.08L370.51 574.07L363.53 579.78L356.33 585.21L348.94 590.35L341.35 595.19L333.58 599.71L325.63 603.92L317.51 607.81L309.22 611.36L300.79 614.57L292.2 617.44L283.47 619.95L274.61 622.09L265.63 623.86L256.52 625.25L247.31 626.26L237.99 626.87L228.57 627.07L219.16 626.87L209.84 626.26L200.62 625.25L191.52 623.86L182.53 622.09L173.67 619.95L164.94 617.44L156.36 614.57L147.92 611.36L139.64 607.81L131.52 603.92L123.57 599.71L115.79 595.19L108.21 590.35L100.81 585.21L93.62 579.78L86.63 574.07L79.85 568.08L73.3 561.81L66.98 555.29L60.89 548.52L55.05 541.49L49.46 534.23L44.13 526.75L39.06 519.03L34.27 511.11L29.75 502.98L25.53 494.65L21.6 486.13L17.97 477.43L14.66 468.55L11.66 459.51L8.99 450.31L6.65 440.96L4.65 431.46L2.99 421.83L1.7 412.07L0.76 402.2L0.19 392.21L0 382.12L0.19 372.03L0.76 362.04L1.7 352.17L2.99 342.41L4.65 332.78L6.65 323.29L8.99 313.93L11.66 304.73L14.66 295.69L17.97 286.81L21.6 278.11L25.53 269.59L29.75 261.26L34.27 253.13L39.06 245.21L44.13 237.5L49.46 230.01L55.05 222.75L60.89 215.73L66.98 208.95L73.3 202.43L79.85 196.17L86.63 190.17L93.62 184.46L100.81 179.03L108.21 173.89L115.79 169.06L123.57 164.53L131.52 160.32L139.64 156.43L147.92 152.88L156.36 149.67L164.94 146.8L173.67 144.3L182.53 142.15L191.52 140.38L200.62 138.99L209.84 137.98L219.16 137.38L228.57 137.17L237.99 137.38L247.31 137.98L256.52 138.99L265.63 140.38L274.61 142.15L283.47 144.3L292.2 146.8L300.79 149.67L309.22 152.88L317.51 156.43L325.63 160.32L333.58 164.53L341.35 169.06L342.78 169.97L331.42 191.06L228.57 382.12L457.14 382.12L456.95 372.03L456.38 362.04L455.45 352.17L454.15 342.41L452.5 332.78L450.5 323.29L448.15 313.93L445.48 304.73L442.48 295.69L439.17 286.81L435.54 278.11L431.61 269.59L427.39 261.26L422.88 253.13L418.08 245.21L413.02 237.5L407.68 230.01L402.09 222.75L396.25 215.73L390.16 208.95L383.84 202.43L377.29 196.17L370.51 190.17L363.53 184.46L356.33 179.03L348.94 173.89L342.78 169.97L434.28 0L537.14 191.06L640 382.12ZM77.19 431.23L75.81 431.38L74.44 431.59L73.09 431.86L71.76 432.18L70.46 432.56L69.17 432.99L67.9 433.47L66.66 434L65.44 434.58L64.25 435.21L63.08 435.89L61.95 436.62L60.84 437.39L59.76 438.2L58.71 439.06L57.69 439.96L56.71 440.9L55.76 441.88L54.85 442.89L53.97 443.95L53.13 445.04L52.33 446.16L51.57 447.32L50.85 448.5L50.18 449.72L49.54 450.97L48.95 452.25L48.41 453.56L47.91 454.89L47.46 456.24L47.06 457.62L46.71 459.03L46.41 460.45L46.16 461.9L45.97 463.36L45.83 464.84L45.74 466.34L45.71 467.85L45.74 469.37L45.83 470.86L45.97 472.35L46.16 473.81L46.41 475.25L46.71 476.68L47.06 478.08L47.46 479.46L47.91 480.82L48.41 482.15L48.95 483.45L49.54 484.73L50.18 485.98L50.85 487.2L51.57 488.39L52.33 489.55L53.13 490.67L53.97 491.76L54.85 492.81L55.76 493.83L56.71 494.81L57.69 495.75L58.71 496.65L59.76 497.5L60.84 498.32L61.95 499.09L63.08 499.81L64.25 500.49L65.44 501.12L66.66 501.71L67.9 502.24L69.17 502.72L70.46 503.15L71.76 503.53L73.09 503.85L74.44 504.11L75.81 504.32L77.19 504.47L78.59 504.56L80 504.6L81.41 504.56L82.81 504.47L84.19 504.32L85.56 504.11L86.91 503.85L88.24 503.53L89.54 503.15L90.83 502.72L92.1 502.24L93.34 501.71L94.56 501.12L95.75 500.49L96.92 499.81L98.05 499.09L99.16 498.32L100.24 497.5L101.29 496.65L102.31 495.75L103.29 494.81L104.24 493.83L105.15 492.81L106.03 491.76L106.87 490.67L107.67 489.55L108.43 488.39L109.15 487.2L109.82 485.98L110.46 484.73L111.05 483.45L111.59 482.15L112.09 480.82L112.54 479.46L112.94 478.08L113.29 476.68L113.59 475.25L113.84 473.81L114.03 472.35L114.17 470.86L114.26 469.37L114.29 467.85L114.26 466.34L114.17 464.84L114.03 463.36L113.84 461.9L113.59 460.45L113.29 459.03L112.94 457.62L112.54 456.24L112.09 454.89L111.59 453.56L111.05 452.25L110.46 450.97L109.82 449.72L109.15 448.5L108.43 447.32L107.67 446.16L106.87 445.04L106.03 443.95L105.15 442.89L104.24 441.88L103.29 440.9L102.31 439.96L101.29 439.06L100.24 438.2L99.16 437.39L98.05 436.62L96.92 435.89L95.75 435.21L94.56 434.58L93.34 434L92.1 433.47L90.83 432.99L89.54 432.56L88.24 432.18L86.91 431.86L85.56 431.59L84.19 431.38L82.81 431.23L81.41 431.14L80 431.11L78.59 431.14L77.19 431.23Z" id="acVGKs5r"></path></defs><g><g><g><use xlink:href="#acVGKs5r" opacity="1" fill="#E9F7F9" fill-opacity="1"></use></g></g></g></svg>